<svg xmlns="http://www.w3.org/2000/svg" viewBox="0 0 64 64"><defs><style>.cls-1{fill:#fff;}.cls-2{fill:#298eea;}.cls-3{fill:none;stroke:#298eea;stroke-miterlimit:10;}.cls-4{fill:#d4e8fb;}</style></defs><title>icon PHP Hosting</title><g id="cpanel"><rect class="cls-1" x="5" y="11.771" width="54" height="40.459" rx="0.377" ry="0.377"/><path class="cls-2" d="M58,12.77V51.23H6V12.77H58m.623-2H5.377A1.381,1.381,0,0,0,4,12.148v39.7A1.381,1.381,0,0,0,5.377,53.23H58.623A1.381,1.381,0,0,0,60,51.852v-39.7a1.381,1.381,0,0,0-1.377-1.377Z"/><line class="cls-3" x1="5" y1="20.5" x2="59" y2="20.5"/><line class="cls-3" x1="17.5" y1="21" x2="17.5" y2="53"/><rect class="cls-4" x="7.996" y="23.91" width="6.885" height="1.377"/><rect class="cls-4" x="7.996" y="27.69" width="6.885" height="1.377"/><rect class="cls-4" x="7.996" y="31.469" width="6.885" height="1.377"/><rect class="cls-4" x="7.996" y="35.249" width="6.885" height="1.377"/><rect class="cls-4" x="7.996" y="39.029" width="6.885" height="1.377"/><rect class="cls-4" x="7.996" y="42.808" width="6.885" height="1.377"/><rect class="cls-4" x="7.996" y="46.588" width="6.885" height="1.377"/><path class="cls-4" d="M36.228,31.808l-.739,2.526-.053.182a1.288,1.288,0,0,1-1.145.835H32.1a1.992,1.992,0,0,0,0,3.984h1.371a.589.589,0,0,1,.487.58.6.6,0,0,1-.018.147l-.747,2.816h-1.1a5.535,5.535,0,0,1,0-11.071Z"/><path class="cls-4" d="M48.225,33.759A5.532,5.532,0,0,1,42.7,39.295H39.211l.739-2.526L40,36.586a1.288,1.288,0,0,1,1.145-.835H42.69a1.992,1.992,0,0,0,0-3.984H40.551L37.874,41.9l-.041.155a1.232,1.232,0,0,1-.954.82,1.179,1.179,0,0,1-.213.019H33.985l3.487-13.6.05-.193a1.3,1.3,0,0,1,1.229-.878H42.7A5.532,5.532,0,0,1,48.225,33.759Z"/></g></svg>