<svg xmlns="http://www.w3.org/2000/svg" viewBox="0 0 64 64"><defs><style>.cls-1{fill:#fff;stroke:#298eea;stroke-miterlimit:10;stroke-width:2px;}.cls-2{fill:#d4e8fb;}.cls-3{fill:#298eea;}</style></defs><title>icon PHP Hosting</title><g id="innoDB"><path class="cls-1" d="M50.875,41.84v10c0,1.791-8.451,3.242-18.875,3.242S13.125,53.631,13.125,51.84V41.884"/><path class="cls-1" d="M50.875,32.21v10c0,1.791-8.451,3.242-18.875,3.242S13.125,44,13.125,42.21V32.254"/><path class="cls-1" d="M50.875,22.162v10c0,1.791-8.451,3.242-18.875,3.242s-18.875-1.452-18.875-3.242V22.206"/><path class="cls-1" d="M50.875,12.16v10C50.875,23.95,42.424,25.4,32,25.4S13.125,23.95,13.125,22.16V12.2"/><ellipse class="cls-1" cx="32" cy="12.16" rx="18.875" ry="3.242"/><path class="cls-2" d="M32,60.968A13.968,13.968,0,1,1,45.968,47,13.983,13.983,0,0,1,32,60.968Z"/><path class="cls-3" d="M32,34.032A12.968,12.968,0,1,1,19.032,47,12.983,12.983,0,0,1,32,34.032m0-2A14.968,14.968,0,1,0,46.968,47,14.968,14.968,0,0,0,32,32.032Z"/><path class="cls-3" d="M36.963,41.351c-3.173,0-5.776,3.649-5.9,5.649h0c-.15,3-1.9,3.764-4.031,3.764a4.039,4.039,0,1,1,3.443-6.136,6.615,6.615,0,0,1,.933-1.847,5.851,5.851,0,0,0-4.376-1.959,5.916,5.916,0,0,0,0,11.832A6,6,0,0,0,32.934,47h0a4.128,4.128,0,0,1,4.031-3.758,4.041,4.041,0,1,1-3.443,6.141,6.617,6.617,0,0,1-.933,1.847,5.851,5.851,0,0,0,4.376,1.959,5.919,5.919,0,0,0,0-11.838Z"/></g></svg>