<svg xmlns="http://www.w3.org/2000/svg" viewBox="0 0 64 64"><defs><style>.cls-1{fill:#fff;}.cls-1,.cls-4{stroke:#298eea;stroke-miterlimit:10;stroke-width:2px;}.cls-2{fill:#d4e8fb;}.cls-3{fill:#298eea;}.cls-4{fill:none;stroke-linecap:round;}</style></defs><title>icon PHP Hosting</title><g id="remote"><path class="cls-1" d="M50.875,39.84v10c0,1.791-8.451,3.242-18.875,3.242S13.125,51.631,13.125,49.84V39.884"/><path class="cls-1" d="M50.875,30.21v10c0,1.791-8.451,3.242-18.875,3.242S13.125,42,13.125,40.21V30.254"/><path class="cls-1" d="M50.875,20.162v10c0,1.791-8.451,3.242-18.875,3.242s-18.875-1.452-18.875-3.242V20.206"/><path class="cls-1" d="M50.875,10.16v10C50.875,21.95,42.424,23.4,32,23.4S13.125,21.95,13.125,20.16V10.2"/><ellipse class="cls-1" cx="32" cy="10.16" rx="18.875" ry="3.242"/><path class="cls-2" d="M32,58.968A13.968,13.968,0,1,1,45.968,45,13.983,13.983,0,0,1,32,58.968Z"/><path class="cls-3" d="M32,32.032A12.968,12.968,0,1,1,19.032,45,12.983,12.983,0,0,1,32,32.032m0-2A14.968,14.968,0,1,0,46.968,45,14.968,14.968,0,0,0,32,30.032Z"/><path class="cls-4" d="M32,35.125A9.875,9.875,0,0,1,41.875,45"/><path class="cls-4" d="M32,39.84A5.16,5.16,0,0,1,37.16,45"/><path class="cls-4" d="M31,45v1.542A4.458,4.458,0,0,0,35.458,51H36v7"/><circle class="cls-3" cx="31" cy="44.956" r="2.016"/></g></svg>