<svg xmlns="http://www.w3.org/2000/svg" viewBox="0 0 64 64"><defs><style>.cls-1{fill:#fff;}.cls-1,.cls-2{stroke:#298eea;stroke-miterlimit:10;stroke-width:2px;}.cls-2{fill:none;stroke-linecap:round;}.cls-3{fill:#c9c9c9;}</style></defs><title>icon PHP Hosting</title><g id="MySQL"><path class="cls-1" d="M51.25,41.13v10c0,1.791-8.451,3.242-18.875,3.242S13.5,52.921,13.5,51.13V41.174"/><path class="cls-1" d="M51.25,31.5v10c0,1.791-8.451,3.242-18.875,3.242S13.5,43.291,13.5,41.5V31.544"/><path class="cls-1" d="M51.25,21.452v10c0,1.791-8.451,3.242-18.875,3.242S13.5,33.243,13.5,31.452V21.5"/><path class="cls-1" d="M51.25,11.45v10c0,1.791-8.451,3.242-18.875,3.242S13.5,23.241,13.5,21.45V11.494"/><ellipse class="cls-1" cx="32.375" cy="11.45" rx="18.875" ry="3.242"/><path class="cls-2" d="M51.25,16.869c0,1.791-8.451,3.242-18.875,3.242"/><circle class="cls-3" cx="17.219" cy="18.51" r="1"/><path class="cls-2" d="M51.25,26.452c0,1.791-8.451,3.242-18.875,3.242"/><circle class="cls-3" cx="17.219" cy="28.094" r="1"/><path class="cls-2" d="M51.25,36.035c0,1.791-8.451,3.242-18.875,3.242"/><circle class="cls-3" cx="17.219" cy="37.677" r="1"/><path class="cls-2" d="M51.25,45.619c0,1.791-8.451,3.242-18.875,3.242"/><circle class="cls-3" cx="17.219" cy="47.26" r="1"/></g></svg>