<svg xmlns="http://www.w3.org/2000/svg" viewBox="0 0 507 347.196"><defs><style>.cls-1{fill:#f7fcff;}.cls-14,.cls-2,.cls-21,.cls-6{fill:none;}.cls-2,.cls-21{stroke:#dbf0ff;}.cls-14,.cls-2,.cls-21,.cls-25,.cls-3,.cls-9{stroke-miterlimit:10;}.cls-2,.cls-25{stroke-width:2px;}.cls-20,.cls-25,.cls-3,.cls-7{fill:#fff;}.cls-3,.cls-6{stroke:#80c9ff;}.cls-3,.cls-6,.cls-9{stroke-width:4px;}.cls-4{fill:#def1ff;}.cls-12,.cls-16,.cls-22,.cls-5{fill:#80c9ff;}.cls-25,.cls-6,.cls-9{stroke-linecap:round;}.cls-6{stroke-linejoin:round;}.cls-8{fill:#288eea;}.cls-9{fill:#d4e8fb;}.cls-14,.cls-25,.cls-9{stroke:#298eea;}.cls-10{fill:#298eea;}.cls-11{fill:#ddd;}.cls-12,.cls-13{fill-rule:evenodd;}.cls-13{fill:#ededed;}.cls-15{fill:#c9c9c9;}.cls-16{font-size:14px;font-family:Bebas, Bebas;}.cls-17{letter-spacing:0.018em;}.cls-18{letter-spacing:0.017em;}.cls-19{letter-spacing:0.026em;}.cls-20{font-size:20px;}.cls-20,.cls-22{font-family:GothamCondensed-Medium, Gotham Condensed;}.cls-22{font-size:20.206px;}.cls-23{letter-spacing:-0.005em;}.cls-24{letter-spacing:0em;}</style></defs><title>illustration banner support laravel hosting</title><g id="Layer_2" data-name="Layer 2"><path class="cls-1" d="M460.711,359.869S561.685,197.575,453.094,88C392.07,26.422,275.649,52.605,237.356,91.385S72.279,69.257,33.78,144.067C-15.956,240.713,55.4,360,55.4,360Z" transform="translate(-1.711 -12.804)"/><path class="cls-2" d="M24.981,358a244.74,244.74,0,0,1-9.6-68.1C15.377,154.8,124.9,45.279,260,45.279S504.623,154.8,504.623,289.9a244.753,244.753,0,0,1-9.52,67.809" transform="translate(-1.711 -12.804)"/><path class="cls-2" d="M70.985,357.577a200.362,200.362,0,0,1-11.7-67.676C59.289,179.052,149.15,89.19,260,89.19S460.711,179.052,460.711,289.9A200.348,200.348,0,0,1,448.863,358" transform="translate(-1.711 -12.804)"/></g><g id="Layer_1" data-name="Layer 1"><path class="cls-3" d="M104.08,113.2h315.4a16,16,0,0,1,16,16v215.31a0,0,0,0,1,0,0H88.08a0,0,0,0,1,0,0V129.2A16,16,0,0,1,104.08,113.2Z"/><rect class="cls-3" x="103.916" y="147.859" width="314.737" height="196.945"/><rect class="cls-3" x="103.916" y="168.506" width="314.737" height="176.298"/><rect class="cls-4" x="105.649" y="170.215" width="30.946" height="172.875"/><rect class="cls-5" x="152.477" y="177.864" width="50.247" height="8.565"/><rect class="cls-5" x="152.477" y="292.654" width="44.417" height="7.571"/><rect class="cls-5" x="199.702" y="292.654" width="13.677" height="7.571"/><rect class="cls-4" x="266.583" y="292.654" width="26.346" height="7.571"/><rect class="cls-5" x="217.208" y="292.654" width="45.546" height="7.571"/><rect class="cls-5" x="152.477" y="304.054" width="35.199" height="7.571"/><rect class="cls-4" x="152.477" y="315.454" width="12.668" height="7.571"/><rect class="cls-4" x="168.974" y="315.454" width="35.706" height="7.571"/><rect class="cls-5" x="191.433" y="304.054" width="36.094" height="7.571"/><rect class="cls-5" x="152.477" y="190.54" width="83.168" height="8.625"/><rect class="cls-5" x="241.655" y="190.54" width="44.814" height="8.625"/><rect class="cls-5" x="152.477" y="216.774" width="83.168" height="8.625"/><rect class="cls-5" x="152.477" y="229.73" width="31.477" height="8.625"/><rect class="cls-4" x="188.342" y="229.73" width="14.382" height="8.625"/><rect class="cls-5" x="152.477" y="255.53" width="63.495" height="8.625"/><rect class="cls-4" x="152.477" y="242.574" width="50.247" height="8.625"/><rect class="cls-4" x="205.901" y="242.574" width="29.744" height="8.625"/><rect class="cls-4" x="239.399" y="242.574" width="29.744" height="8.625"/><rect class="cls-4" x="152.477" y="268.486" width="64.799" height="8.625"/><rect class="cls-4" x="221.373" y="268.486" width="38.358" height="8.625"/><line class="cls-6" x1="492" y1="345.196" x2="505" y2="345.196"/><line class="cls-6" x1="18" y1="345.196" x2="476" y2="345.196"/><line class="cls-6" x1="2" y1="345.196" x2="11" y2="345.196"/></g><g id="Layer_3" data-name="Layer 3"><polygon class="cls-4" points="198.195 83.412 196.335 75.195 137.339 75.195 137.339 83.412 137.339 127.309 137.339 135.526 222.462 135.526 222.462 83.412 198.195 83.412"/><polygon class="cls-7" points="203.46 78.356 201.599 70.138 142.603 70.138 142.603 78.356 142.603 122.252 142.603 130.47 227.726 130.47 227.726 78.356 203.46 78.356"/><path class="cls-8" d="M230.28,144.116H143.471V82.1h60.512l1.861,8.217H230.28Zm-85.124-1.686h83.438V92H204.5l-1.86-8.218H145.156Z" transform="translate(-1.711 -12.804)"/><line class="cls-7" x1="227.726" y1="92.472" x2="142.603" y2="92.472"/><path class="cls-8" d="M229.437,106.119H144.314a.843.843,0,1,1,0-1.686h85.123a.843.843,0,0,1,0,1.686Z" transform="translate(-1.711 -12.804)"/><rect class="cls-7" x="163.814" y="89.312" width="21.351" height="6.462"/><path class="cls-8" d="M187.718,109.421H164.683v-8.148h23.035Zm-21.35-1.686h19.664v-4.776H166.368Z" transform="translate(-1.711 -12.804)"/><circle class="cls-9" cx="274.136" cy="32.474" r="7.328"/><circle class="cls-4" cx="101.501" cy="27.863" r="4.612"/><circle class="cls-10" cx="44.89" cy="113.199" r="2.895"/><circle class="cls-4" cx="302.295" cy="16.196" r="2.895"/><path class="cls-11" d="M460.713,139.856A12.589,12.589,0,1,0,473.3,152.445,12.6,12.6,0,0,0,460.713,139.856Zm0,20.209a7.62,7.62,0,1,1,7.619-7.62A7.629,7.629,0,0,1,460.713,160.065Z" transform="translate(-1.711 -12.804)"/><path class="cls-8" d="M468.29,153.249a7.618,7.618,0,1,1-7.573-8.423V139.85a12.6,12.6,0,1,0,12.55,13.4Z" transform="translate(-1.711 -12.804)"/><path class="cls-12" d="M483.056,43.369a.894.894,0,0,1-.894.894h0a.894.894,0,0,1-.895-.894V39.025a.894.894,0,0,1,.895-.894h0a.894.894,0,0,1,.894.894Z" transform="translate(-1.711 -12.804)"/><path class="cls-12" d="M483.056,51.845a.894.894,0,0,1-.894.894h0a.894.894,0,0,1-.895-.894V47.5a.894.894,0,0,1,.895-.894h0a.894.894,0,0,1,.894.894Z" transform="translate(-1.711 -12.804)"/><path class="cls-12" d="M484.226,46.18a.894.894,0,0,1-.894-.894h0a.894.894,0,0,1,.894-.894h4.344a.894.894,0,0,1,.894.894h0a.894.894,0,0,1-.894.894Z" transform="translate(-1.711 -12.804)"/><path class="cls-12" d="M475.751,46.18a.894.894,0,0,1-.894-.894h0a.894.894,0,0,1,.894-.894h4.344a.894.894,0,0,1,.894.894h0a.894.894,0,0,1-.894.894Z" transform="translate(-1.711 -12.804)"/><path class="cls-12" d="M129.614,47.656a.86.86,0,0,1-.86.86h0a.86.86,0,0,1-.861-.86V43.477a.86.86,0,0,1,.861-.86h0a.86.86,0,0,1,.86.86Z" transform="translate(-1.711 -12.804)"/><path class="cls-12" d="M129.614,55.81a.86.86,0,0,1-.86.86h0a.86.86,0,0,1-.861-.86V51.631a.86.86,0,0,1,.861-.86h0a.86.86,0,0,1,.86.86Z" transform="translate(-1.711 -12.804)"/><path class="cls-12" d="M130.741,50.36a.86.86,0,0,1-.86-.86h0a.86.86,0,0,1,.86-.86h4.179a.86.86,0,0,1,.86.86h0a.86.86,0,0,1-.86.86Z" transform="translate(-1.711 -12.804)"/><path class="cls-12" d="M122.587,50.36a.86.86,0,0,1-.86-.86h0a.86.86,0,0,1,.86-.86h4.179a.86.86,0,0,1,.86.86h0a.86.86,0,0,1-.86.86Z" transform="translate(-1.711 -12.804)"/><path class="cls-13" d="M26.445,17.844a.86.86,0,0,1-.86.86h0a.86.86,0,0,1-.86-.86V13.665a.86.86,0,0,1,.86-.86h0a.86.86,0,0,1,.86.86Z" transform="translate(-1.711 -12.804)"/><path class="cls-13" d="M26.445,26a.86.86,0,0,1-.86.86h0a.86.86,0,0,1-.86-.86V21.818a.86.86,0,0,1,.86-.86h0a.86.86,0,0,1,.86.86Z" transform="translate(-1.711 -12.804)"/><path class="cls-13" d="M27.571,20.548a.86.86,0,0,1-.86-.86h0a.86.86,0,0,1,.86-.86H31.75a.86.86,0,0,1,.86.86h0a.86.86,0,0,1-.86.86Z" transform="translate(-1.711 -12.804)"/><path class="cls-13" d="M19.417,20.548a.86.86,0,0,1-.86-.86h0a.86.86,0,0,1,.86-.86H23.6a.86.86,0,0,1,.86.86h0a.86.86,0,0,1-.86.86Z" transform="translate(-1.711 -12.804)"/><path class="cls-13" d="M49.446,205.67a.86.86,0,0,1-.86.86h0a.86.86,0,0,1-.86-.86v-4.179a.86.86,0,0,1,.86-.86h0a.86.86,0,0,1,.86.86Z" transform="translate(-1.711 -12.804)"/><path class="cls-13" d="M49.446,213.823a.86.86,0,0,1-.86.86h0a.86.86,0,0,1-.86-.86v-4.179a.86.86,0,0,1,.86-.86h0a.86.86,0,0,1,.86.86Z" transform="translate(-1.711 -12.804)"/><path class="cls-13" d="M50.573,208.374a.86.86,0,0,1-.86-.86h0a.86.86,0,0,1,.86-.86h4.179a.86.86,0,0,1,.86.86h0a.86.86,0,0,1-.86.86Z" transform="translate(-1.711 -12.804)"/><path class="cls-13" d="M42.419,208.374a.86.86,0,0,1-.86-.86h0a.86.86,0,0,1,.86-.86H46.6a.86.86,0,0,1,.86.86h0a.86.86,0,0,1-.86.86Z" transform="translate(-1.711 -12.804)"/><rect class="cls-7" x="339.202" y="32.63" width="71.79" height="53.947" rx="0.814" ry="0.814"/><path class="cls-10" d="M411.7,46.435V98.382h-69.79V46.435H411.7m.186-2H341.727a1.82,1.82,0,0,0-1.815,1.815V98.567a1.82,1.82,0,0,0,1.815,1.814h70.161a1.82,1.82,0,0,0,1.814-1.814V46.249a1.82,1.82,0,0,0-1.814-1.815Z" transform="translate(-1.711 -12.804)"/><line class="cls-14" x1="340" y1="44.696" x2="411" y2="44.696"/><circle class="cls-15" cx="404.515" cy="38.964" r="2.041"/><circle class="cls-15" cx="396.349" cy="38.964" r="2.041"/><circle class="cls-15" cx="388.184" cy="38.964" r="2.041"/><path class="cls-10" d="M366.122,87.208a.908.908,0,0,1-.719-.354l-7.442-9.67,7.853-10.2a.907.907,0,1,1,1.439,1.106l-7,9.1,6.592,8.564a.907.907,0,0,1-.719,1.46Z" transform="translate(-1.711 -12.804)"/><path class="cls-10" d="M386.5,87.208a.908.908,0,0,0,.719-.354l7.442-9.67-7.853-10.2a.907.907,0,0,0-1.439,1.106l7,9.1-6.592,8.564a.907.907,0,0,0,.719,1.46Z" transform="translate(-1.711 -12.804)"/><path class="cls-10" d="M371.56,88.663a.893.893,0,0,1-.367-.078.905.905,0,0,1-.462-1.2l9.679-21.848a.907.907,0,0,1,1.659.734L372.39,88.122A.909.909,0,0,1,371.56,88.663Z" transform="translate(-1.711 -12.804)"/><path class="cls-7" d="M98.791,199.594a23.632,23.632,0,1,1,23.632-23.631A23.658,23.658,0,0,1,98.791,199.594Z" transform="translate(-1.711 -12.804)"/><path class="cls-10" d="M98.791,153.331a22.632,22.632,0,1,1-22.632,22.632,22.657,22.657,0,0,1,22.632-22.632m0-2a24.632,24.632,0,1,0,24.632,24.632,24.632,24.632,0,0,0-24.632-24.632Z" transform="translate(-1.711 -12.804)"/><circle class="cls-2" cx="97.08" cy="163.158" r="29.962"/><text class="cls-16" transform="translate(82.673 168.729)"><tspan class="cls-17">j</tspan><tspan class="cls-18" x="5.688" y="0">s</tspan><tspan class="cls-19" x="13.433" y="0">o</tspan><tspan x="21.039" y="0">n</tspan></text><text class="cls-16" transform="translate(82.673 168.729)"><tspan class="cls-17">j</tspan><tspan class="cls-18" x="5.688" y="0">s</tspan><tspan class="cls-19" x="13.433" y="0">o</tspan><tspan x="21.039" y="0">n</tspan></text><circle class="cls-10" cx="444.615" cy="194.853" r="24.632"/><path class="cls-10" d="M446.326,178.695a28.962,28.962,0,1,1-28.962,28.962,29,29,0,0,1,28.962-28.962m0-1a29.962,29.962,0,1,0,29.962,29.962,29.962,29.962,0,0,0-29.962-29.962Z" transform="translate(-1.711 -12.804)"/><text class="cls-20" transform="translate(431.333 200.298)">phar</text><text class="cls-20" transform="translate(431.333 200.298)">phar</text><path class="cls-7" d="M68.828,102.757a34.551,34.551,0,1,1,34.551-34.551A34.59,34.59,0,0,1,68.828,102.757Z" transform="translate(-1.711 -12.804)"/><path class="cls-10" d="M68.829,34.656A33.551,33.551,0,1,1,35.278,68.206,33.589,33.589,0,0,1,68.829,34.656m0-2a35.551,35.551,0,1,0,35.551,35.551A35.551,35.551,0,0,0,68.829,32.656Z" transform="translate(-1.711 -12.804)"/><circle class="cls-21" cx="67.118" cy="55.402" r="43.245"/><text class="cls-22" transform="translate(38.837 61.11)">mb<tspan class="cls-23" x="19.438" y="0">s</tspan><tspan class="cls-24" x="25.035" y="0">tring</tspan></text><text class="cls-22" transform="translate(38.837 61.11)">mb<tspan class="cls-23" x="19.438" y="0">s</tspan><tspan class="cls-24" x="25.035" y="0">tring</tspan></text><polygon class="cls-25" points="89.883 209.832 51.315 209.832 51.315 266.877 97.673 266.877 97.673 218.422 89.883 209.832"/><rect class="cls-4" x="56.582" y="217.029" width="19.5" height="2.667"/><rect class="cls-4" x="56.582" y="226.576" width="19.5" height="2.667"/><rect class="cls-4" x="56.582" y="236.122" width="30.146" height="2.667"/><rect class="cls-4" x="56.582" y="245.669" width="30.146" height="2.667"/><path class="cls-10" d="M343.021,290.492c-.93.24-1.792.462-2.654.686q-7.5,1.95-14.991,3.9c-3.344.864-6.694,1.708-10.042,2.562a9.9,9.9,0,0,1-1.935.317,5.029,5.029,0,0,1-4.833-2.491,9.067,9.067,0,0,1-.529-1.016q-5.875-12.69-11.744-25.383Q289.4,254.137,282.519,239.2c-.686-1.488-1.351-2.986-2.023-4.481a8.2,8.2,0,0,1-.673-2.185,2.779,2.779,0,0,1,.033-1.03,1.607,1.607,0,0,1,.913-1.157,3.3,3.3,0,0,1,.826-.27c.411-.072.832-.092,1.248-.13q1.033-.095,2.066-.184c.49-.043.979-.087,1.469-.124.635-.048,1.272-.085,1.907-.136.653-.053,1.3-.12,1.957-.179.471-.042.943-.083,1.415-.119.635-.048,1.272-.086,1.907-.136.671-.053,1.342-.117,2.013-.176.49-.043.979-.087,1.469-.124.635-.048,1.272-.086,1.907-.136.708-.056,1.414-.121,2.122-.18.544-.046,1.088-.092,1.633-.131.69-.049,1.381-.085,2.071-.137s1.377-.144,2.068-.172c1.019-.042,2.033-.191,3.055-.14.308.015.615.053.921.094a2.372,2.372,0,0,1,1.643.981c.4.541.794,1.092,1.141,1.668q2.721,4.517,5.416,9.049,8.6,14.372,17.2,28.744,4.5,7.526,9,15.055c.139.233.287.461.411.66.062.021.079.028.1.032a.121.121,0,0,0,.053.01q20.13-4.815,40.258-9.632a.293.293,0,0,0,.093-.054.272.272,0,0,0,.041-.055c.03-.176-.11-.288-.2-.416q-1.129-1.612-2.265-3.218L373.022,255.66a3.434,3.434,0,0,1-.556-1,.963.963,0,0,1,.292-1.04,2.055,2.055,0,0,1,.909-.482c.474-.127.953-.238,1.436-.322,1.486-.26,2.975-.508,4.463-.754,1.417-.235,2.836-.459,4.253-.7,1.2-.2,2.4-.417,3.6-.616,1.22-.2,2.442-.391,3.662-.589.987-.16,1.974-.321,2.96-.488a2.574,2.574,0,0,1,1.838.338,5.99,5.99,0,0,1,1.031.8,15.071,15.071,0,0,1,1.166,1.3q5.255,6.507,10.5,13.022c1.5,1.858,3.01,3.706,4.511,5.561a2.825,2.825,0,0,1,.356.546.791.791,0,0,1-.276,1.1,3.178,3.178,0,0,1-.828.4c-.536.173-1.084.306-1.629.451q-8.195,2.186-16.39,4.372c-.138.037-.271.094-.412.145a.968.968,0,0,0,.29.531c.869,1.17,1.746,2.334,2.615,3.5q6.44,8.664,12.876,17.33c.271.366.543.732.786,1.117a4.389,4.389,0,0,1,.373.785.938.938,0,0,1-.292,1.089,2.958,2.958,0,0,1-.674.457,15.47,15.47,0,0,1-1.45.632c-4.185,1.531-8.368,3.069-12.563,4.572q-14,5.016-28.008,10a43.924,43.924,0,0,1-4.471,1.415,10.268,10.268,0,0,1-1.448.261,3.108,3.108,0,0,1-1.79-.381,4.292,4.292,0,0,1-.956-.722,8.972,8.972,0,0,1-1.383-1.757c-.776-1.276-1.561-2.547-2.3-3.845q-3.834-6.745-7.634-13.509c-1.535-2.731-3.042-5.477-4.562-8.216C343.234,290.829,343.135,290.679,343.021,290.492Zm-3.01-5.407a1.771,1.771,0,0,0-.085-.3,5.944,5.944,0,0,0-.295-.584q-4.638-8.015-9.281-16.028L318.44,247.607q-4.5-7.777-9-15.558a.87.87,0,0,0-.925-.509c-.58.055-1.161.092-1.742.14-.453.038-.906.08-1.36.122-.616.057-1.232.118-1.848.171-.6.052-1.2.093-1.8.143-.453.038-.906.083-1.359.125-.6.056-1.2.116-1.793.168s-1.2.094-1.8.143q-.653.054-1.305.115c-.58.056-1.158.122-1.738.173-.6.052-1.2.088-1.8.137-.508.042-1.015.092-1.523.139-.616.057-1.232.118-1.848.169s-1.234.092-1.851.142a3.669,3.669,0,0,0-.432.066c-.215.044-.33.158-.313.375a2.269,2.269,0,0,0,.141.633c.111.288.259.561.394.84q9.087,18.722,18.174,37.444,4.325,8.921,8.622,17.855c.111.229.208.465.317.7a.538.538,0,0,0,.65.364,1.96,1.96,0,0,0,.214-.045c.833-.19,1.667-.375,2.5-.572q5.625-1.333,11.248-2.673,5.438-1.295,10.874-2.595a3.238,3.238,0,0,0,.522-.155A.546.546,0,0,0,340.011,285.084Zm8.58,3.991a1.305,1.305,0,0,0,.23.519q5.189,8.924,10.381,17.847,1.045,1.794,2.126,3.566a7.548,7.548,0,0,0,.817,1.089,1.292,1.292,0,0,0,1.58.365c.469-.195.955-.351,1.437-.515l34.45-11.693q1.6-.543,3.2-1.092a4.16,4.16,0,0,0,.6-.25.556.556,0,0,0,.269-.894,3.154,3.154,0,0,0-.173-.278c-.134-.2-.268-.39-.408-.581q-3.108-4.259-6.217-8.517-3.471-4.772-6.93-9.552a2.7,2.7,0,0,0-.242-.3.808.808,0,0,0-.838-.263c-.315.086-.63.174-.946.256q-2.69.705-5.38,1.408-7.044,1.832-14.09,3.661-6.385,1.662-12.768,3.329-3.377.88-6.754,1.756A3.157,3.157,0,0,0,348.591,289.075Zm41.95-15.615c.121-.018.193-.023.262-.04,1.64-.406,3.279-.817,4.919-1.22q4.578-1.126,9.158-2.247c.494-.121.99-.236,1.479-.375a2.635,2.635,0,0,0,.648-.277.427.427,0,0,0,.144-.692c-.09-.136-.2-.261-.3-.39q-4.848-6.161-9.7-12.321c-.518-.658-1.029-1.322-1.541-1.985a1.5,1.5,0,0,0-1.587-.6c-1.392.267-2.786.523-4.179.78-1.912.353-3.823.708-5.737,1.051-1.556.279-3.115.541-4.673.81-.2.034-.4.061-.59.1-.514.111-.638.37-.384.823a5.593,5.593,0,0,0,.365.544Q384.51,265.214,390.19,273C390.3,273.15,390.41,273.291,390.541,273.46Z" transform="translate(-1.711 -12.804)"/></g></svg>