<svg xmlns="http://www.w3.org/2000/svg" viewBox="0 0 618 360"><defs><style>.cls-1{fill:#f7fcff;}.cls-15,.cls-17,.cls-2,.cls-6,.cls-7{fill:#fff;}.cls-2,.cls-5{stroke:#80c9ff;}.cls-10,.cls-13,.cls-14,.cls-15,.cls-2,.cls-22,.cls-6,.cls-7,.cls-9{stroke-miterlimit:10;}.cls-10,.cls-2,.cls-5,.cls-6,.cls-9{stroke-width:4px;}.cls-3{fill:#def1ff;}.cls-20,.cls-4{fill:#80c9ff;}.cls-22,.cls-5,.cls-9{fill:none;}.cls-10,.cls-13,.cls-14,.cls-15,.cls-5,.cls-6,.cls-7,.cls-9{stroke-linecap:round;}.cls-5{stroke-linejoin:round;}.cls-15,.cls-6,.cls-7,.cls-9{stroke:#288eea;}.cls-7{stroke-width:5px;}.cls-8{fill:#288eea;}.cls-10{fill:#d4e8fb;}.cls-10,.cls-13,.cls-14,.cls-22{stroke:#298eea;}.cls-11{fill:#2c90ea;}.cls-12{fill:#5ba6ea;}.cls-13{fill:#e3f0fc;}.cls-13,.cls-14,.cls-15{stroke-width:2px;}.cls-14{fill:#bddfff;}.cls-16{fill:#83b9ea;}.cls-18{fill:#298eea;}.cls-19{fill:#ddd;}.cls-20,.cls-21{fill-rule:evenodd;}.cls-21{fill:#ededed;}.cls-23{fill:#c9c9c9;}</style></defs><title>illustration banner PHP hosting</title><g id="Layer_1" data-name="Layer 1"><path class="cls-1" d="M580,356.021S608,111,518,73,355.486,7.3,312.333,51,83,31.667,41,116.666C-40.417,281.439,65.361,360,65.361,360Z"/><path class="cls-2" d="M143,91H512a16,16,0,0,1,16,16V358a0,0,0,0,1,0,0H127a0,0,0,0,1,0,0V107A16,16,0,0,1,143,91Z"/><rect class="cls-2" x="145.279" y="130.667" width="363.299" height="227.333"/><rect class="cls-2" x="145.279" y="154.5" width="363.299" height="203.5"/><rect class="cls-3" x="147.279" y="156.472" width="35.721" height="199.549"/><rect class="cls-4" x="201.333" y="164.39" width="58" height="9.886"/><rect class="cls-4" x="201.333" y="298.603" width="58" height="9.886"/><rect class="cls-4" x="263" y="298.603" width="17.859" height="9.886"/><rect class="cls-3" x="350.333" y="298.603" width="34.402" height="9.886"/><rect class="cls-4" x="285.859" y="298.603" width="59.474" height="9.886"/><rect class="cls-4" x="201.333" y="313.49" width="45.963" height="9.886"/><rect class="cls-3" x="201.333" y="328.376" width="16.542" height="9.886"/><rect class="cls-3" x="222.875" y="328.376" width="46.625" height="9.886"/><rect class="cls-4" x="252.202" y="313.49" width="47.131" height="9.886"/><rect class="cls-4" x="201.333" y="179.022" width="96" height="9.955"/><rect class="cls-4" x="304.271" y="179.022" width="51.729" height="9.955"/><rect class="cls-4" x="201.333" y="209.303" width="96" height="9.955"/><rect class="cls-4" x="201.333" y="224.259" width="36.333" height="9.955"/><rect class="cls-3" x="242.732" y="224.259" width="16.601" height="9.955"/><rect class="cls-4" x="201.333" y="254.04" width="73.292" height="9.955"/><rect class="cls-3" x="201.333" y="239.084" width="58" height="9.955"/><rect class="cls-3" x="263" y="239.084" width="34.333" height="9.955"/><rect class="cls-3" x="301.667" y="239.084" width="34.333" height="9.955"/><rect class="cls-3" x="201.333" y="268.995" width="74.797" height="9.955"/><rect class="cls-3" x="280.859" y="268.995" width="44.276" height="9.955"/><line class="cls-5" x1="41" y1="358" x2="614" y2="358"/><line class="cls-5" x1="13" y1="358" x2="27" y2="358"/></g><g id="Layer_2" data-name="Layer 2"><rect class="cls-6" x="395.628" y="35" width="191.322" height="318.607" rx="12.546" ry="12.546"/><path class="cls-7" d="M411.623,265.153H570.955a4.415,4.415,0,0,1,4.415,4.415v27.958a4.414,4.414,0,0,1-4.414,4.414H411.623a4.414,4.414,0,0,1-4.414-4.414V269.567A4.414,4.414,0,0,1,411.623,265.153Z"/><path class="cls-8" d="M422.763,291.271a2.576,2.576,0,0,1-2.575,2.574h0a2.575,2.575,0,0,1-2.575-2.574V275.822a2.576,2.576,0,0,1,2.575-2.576h0a2.576,2.576,0,0,1,2.575,2.576Z"/><path class="cls-8" d="M431.477,291.271a2.576,2.576,0,0,1-2.575,2.574h0a2.575,2.575,0,0,1-2.575-2.574V275.822a2.576,2.576,0,0,1,2.575-2.576h0a2.576,2.576,0,0,1,2.575,2.576Z"/><path class="cls-8" d="M440.191,291.271a2.576,2.576,0,0,1-2.575,2.574h0a2.575,2.575,0,0,1-2.575-2.574V275.822a2.576,2.576,0,0,1,2.575-2.576h0a2.576,2.576,0,0,1,2.575,2.576Z"/><path class="cls-8" d="M564.075,283.546a5.05,5.05,0,0,1-5.05,5.05h0a5.05,5.05,0,0,1-5.05-5.05h0a5.05,5.05,0,0,1,5.05-5.05h0a5.05,5.05,0,0,1,5.05,5.05Z"/><rect class="cls-7" x="407.209" y="218.834" width="168.161" height="36.787" rx="4.414" ry="4.414"/><path class="cls-8" d="M422.763,244.952a2.576,2.576,0,0,1-2.575,2.574h0a2.575,2.575,0,0,1-2.575-2.574V229.5a2.576,2.576,0,0,1,2.575-2.576h0a2.576,2.576,0,0,1,2.575,2.576Z"/><path class="cls-8" d="M431.477,244.952a2.576,2.576,0,0,1-2.575,2.574h0a2.575,2.575,0,0,1-2.575-2.574V229.5a2.576,2.576,0,0,1,2.575-2.576h0a2.576,2.576,0,0,1,2.575,2.576Z"/><path class="cls-8" d="M440.191,244.952a2.576,2.576,0,0,1-2.575,2.574h0a2.575,2.575,0,0,1-2.575-2.574V229.5a2.576,2.576,0,0,1,2.575-2.576h0a2.576,2.576,0,0,1,2.575,2.576Z"/><path class="cls-8" d="M564.075,237.228a5.05,5.05,0,0,1-5.05,5.05h0a5.05,5.05,0,0,1-5.05-5.05h0a5.05,5.05,0,0,1,5.05-5.05h0a5.05,5.05,0,0,1,5.05,5.05Z"/><path class="cls-7" d="M411.623,172.516H570.955a4.415,4.415,0,0,1,4.415,4.415v27.958a4.414,4.414,0,0,1-4.414,4.414H411.623a4.414,4.414,0,0,1-4.414-4.414V176.93A4.414,4.414,0,0,1,411.623,172.516Z"/><path class="cls-8" d="M422.763,198.634a2.576,2.576,0,0,1-2.575,2.574h0a2.575,2.575,0,0,1-2.575-2.574V183.185a2.576,2.576,0,0,1,2.575-2.576h0a2.576,2.576,0,0,1,2.575,2.576Z"/><path class="cls-8" d="M431.477,198.634a2.576,2.576,0,0,1-2.575,2.574h0a2.575,2.575,0,0,1-2.575-2.574V183.185a2.576,2.576,0,0,1,2.575-2.576h0a2.576,2.576,0,0,1,2.575,2.576Z"/><path class="cls-8" d="M440.191,198.634a2.576,2.576,0,0,1-2.575,2.574h0a2.575,2.575,0,0,1-2.575-2.574V183.185a2.576,2.576,0,0,1,2.575-2.576h0a2.576,2.576,0,0,1,2.575,2.576Z"/><path class="cls-8" d="M564.075,190.909a5.05,5.05,0,0,1-5.05,5.05h0a5.05,5.05,0,0,1-5.05-5.05h0a5.05,5.05,0,0,1,5.05-5.05h0a5.05,5.05,0,0,1,5.05,5.05Z"/><path class="cls-7" d="M411.623,126.2H570.955a4.415,4.415,0,0,1,4.415,4.415V158.57a4.414,4.414,0,0,1-4.414,4.414H411.623a4.414,4.414,0,0,1-4.414-4.414V130.612A4.414,4.414,0,0,1,411.623,126.2Z"/><path class="cls-8" d="M422.763,152.315a2.576,2.576,0,0,1-2.575,2.574h0a2.575,2.575,0,0,1-2.575-2.574V136.867a2.576,2.576,0,0,1,2.575-2.576h0a2.576,2.576,0,0,1,2.575,2.576Z"/><path class="cls-8" d="M431.477,152.315a2.576,2.576,0,0,1-2.575,2.574h0a2.575,2.575,0,0,1-2.575-2.574V136.867a2.576,2.576,0,0,1,2.575-2.576h0a2.576,2.576,0,0,1,2.575,2.576Z"/><path class="cls-8" d="M440.191,152.315a2.576,2.576,0,0,1-2.575,2.574h0a2.575,2.575,0,0,1-2.575-2.574V136.867a2.576,2.576,0,0,1,2.575-2.576h0a2.576,2.576,0,0,1,2.575,2.576Z"/><path class="cls-8" d="M564.075,144.591a5.05,5.05,0,0,1-5.05,5.05h0a5.05,5.05,0,0,1-5.05-5.05h0a5.05,5.05,0,0,1,5.05-5.05h0a5.05,5.05,0,0,1,5.05,5.05Z"/><path class="cls-7" d="M411.623,79.879H570.955a4.415,4.415,0,0,1,4.415,4.415v27.958a4.414,4.414,0,0,1-4.414,4.414H411.623a4.414,4.414,0,0,1-4.414-4.414V84.293A4.414,4.414,0,0,1,411.623,79.879Z"/><path class="cls-8" d="M422.763,106a2.576,2.576,0,0,1-2.575,2.574h0A2.575,2.575,0,0,1,417.612,106V90.548a2.576,2.576,0,0,1,2.575-2.576h0a2.576,2.576,0,0,1,2.575,2.576Z"/><path class="cls-8" d="M431.477,106a2.576,2.576,0,0,1-2.575,2.574h0A2.575,2.575,0,0,1,426.327,106V90.548a2.576,2.576,0,0,1,2.575-2.576h0a2.576,2.576,0,0,1,2.575,2.576Z"/><path class="cls-8" d="M440.191,106a2.576,2.576,0,0,1-2.575,2.574h0A2.575,2.575,0,0,1,435.041,106V90.548a2.576,2.576,0,0,1,2.575-2.576h0a2.576,2.576,0,0,1,2.575,2.576Z"/><path class="cls-8" d="M564.075,98.272a5.05,5.05,0,0,1-5.05,5.05h0a5.05,5.05,0,0,1-5.05-5.05h0a5.05,5.05,0,0,1,5.05-5.05h0a5.05,5.05,0,0,1,5.05,5.05Z"/><rect class="cls-6" x="384.736" y="312.415" width="213.108" height="45.948" rx="4.753" ry="4.753"/><path class="cls-9" d="M575.37,61.409h-40.3a3.223,3.223,0,0,1-3.223-3.223h0a3.223,3.223,0,0,0-3.223-3.223h-64.4A3.223,3.223,0,0,0,461,58.186h0a3.223,3.223,0,0,1-3.223,3.223H407.943"/></g><g id="Layer_3" data-name="Layer 3"><polygon class="cls-10" points="116 51 116 131 205.364 131 233 150.516 233 130.279 233 122.202 233 51 116 51"/><path class="cls-11" d="M214.185,79.631s-12.009,22.456-12.174,22.82a.509.509,0,0,1-.488.345h-5.277c-.289,0-.059-.456-.059-.456l9.993-19.64h-9.01l-4.556-4.2,21.449.1s.423-.006.423.33A2.685,2.685,0,0,1,214.185,79.631Z"/><path class="cls-12" d="M152.829,78.5H141.44a.607.607,0,0,0-.607.607v23.234a.608.608,0,0,0,.607.607h4.1a.608.608,0,0,0,.607-.607V94.748h6.682c2.684,0,4.391-2.176,4.391-4.859v-6.53C157.221,80.675,155.513,78.5,152.829,78.5Zm-1.152,10.8a1.519,1.519,0,0,1-1.519,1.519h-4.176V82.575h4.176a1.519,1.519,0,0,1,1.519,1.519Z"/><path class="cls-12" d="M193.526,78.5H182.137a.607.607,0,0,0-.607.607v23.234a.608.608,0,0,0,.607.607h4.1a.608.608,0,0,0,.607-.607V94.748h6.682c2.684,0,4.391-2.176,4.391-4.859v-6.53a4.561,4.561,0,0,0-3.575-4.789A4.63,4.63,0,0,0,193.526,78.5Zm-1.152,10.8a1.519,1.519,0,0,1-1.519,1.519H186.68V82.575h4.176a1.518,1.518,0,0,1,1.519,1.519Z"/><path class="cls-12" d="M177.227,78.449h-4.91a.3.3,0,0,0-.3.3v9.972h-5.568V78.753a.3.3,0,0,0-.3-.3h-4.91a.3.3,0,0,0-.3.3v23.791a.3.3,0,0,0,.3.3h4.91a.3.3,0,0,0,.3-.3V92.977h5.568v9.567a.3.3,0,0,0,.3.3h4.91a.3.3,0,0,0,.3-.3V78.753A.3.3,0,0,0,177.227,78.449Z"/><rect class="cls-13" x="370.296" y="209.354" width="82.235" height="66.342"/><rect class="cls-14" x="363.356" y="202.472" width="82.235" height="66.342"/><rect class="cls-15" x="363.356" y="202.472" width="82.235" height="11.808"/><rect class="cls-15" x="363.356" y="202.472" width="70.806" height="11.808"/><rect class="cls-16" x="369.643" y="220.541" width="19.348" height="3.862"/><rect class="cls-16" x="392.256" y="220.541" width="7.184" height="3.862"/><rect class="cls-16" x="402.706" y="220.541" width="20.354" height="3.862"/><rect class="cls-16" x="369.643" y="228.214" width="8.97" height="3.862"/><rect class="cls-16" x="379.854" y="228.214" width="22.089" height="3.862"/><rect class="cls-16" x="369.643" y="235.18" width="12.687" height="3.862"/><rect class="cls-16" x="384.087" y="235.18" width="31.245" height="3.862"/><rect class="cls-16" x="369.643" y="242.146" width="5.525" height="3.862"/><rect class="cls-16" x="377.889" y="242.146" width="37.443" height="3.862"/><rect class="cls-16" x="369.643" y="249.112" width="20.437" height="3.862"/><rect class="cls-16" x="369.643" y="256.078" width="21.256" height="3.862"/><rect class="cls-16" x="394.318" y="256.078" width="31.245" height="3.862"/><polygon class="cls-3" points="134.648 233.991 132.531 224.635 65.361 224.635 65.361 233.991 65.361 283.969 65.361 293.325 162.276 293.325 162.276 233.991 134.648 233.991"/><polygon class="cls-17" points="140.642 228.234 138.523 218.878 71.355 218.878 71.355 228.234 71.355 278.211 71.355 287.568 168.27 287.568 168.27 228.234 140.642 228.234"/><path class="cls-8" d="M169.23,288.526H70.395V217.919H139.29l2.118,9.355H169.23Zm-96.916-1.919h95V229.194H139.875l-2.118-9.356H72.314Z"/><path class="cls-8" d="M168.27,245.266H71.355a.96.96,0,1,1,0-1.92H168.27a.96.96,0,0,1,0,1.92Z"/><rect class="cls-17" x="95.504" y="240.708" width="24.309" height="7.357"/><path class="cls-8" d="M120.771,249.025H94.545v-9.276h26.226Zm-24.307-1.92h22.388v-5.438H96.464Z"/><circle class="cls-10" cx="40.157" cy="117.407" r="8.343"/><circle class="cls-18" cx="51.079" cy="200.96" r="3.296"/><circle class="cls-3" cx="162.276" cy="21.01" r="3.296"/><circle class="cls-3" cx="341.5" cy="24.306" r="3.296"/><path class="cls-19" d="M309,32.733a14.333,14.333,0,1,0,14.332,14.333A14.349,14.349,0,0,0,309,32.733Zm0,23.009a8.675,8.675,0,1,1,8.675-8.675A8.685,8.685,0,0,1,309,55.742Z"/><path class="cls-8" d="M317.629,47.983a8.673,8.673,0,1,1-8.622-9.59V32.726a14.341,14.341,0,1,0,14.288,15.256Z"/><path class="cls-20" d="M104.625,34.652a1.592,1.592,0,0,1-1.592,1.591h0a1.591,1.591,0,0,1-1.592-1.591V26.92a1.592,1.592,0,0,1,1.592-1.592h0a1.592,1.592,0,0,1,1.592,1.592Z"/><path class="cls-20" d="M104.625,49.737a1.592,1.592,0,0,1-1.592,1.591h0a1.591,1.591,0,0,1-1.592-1.591V42a1.591,1.591,0,0,1,1.592-1.591h0A1.592,1.592,0,0,1,104.625,42Z"/><path class="cls-20" d="M106.709,39.654a1.591,1.591,0,0,1-1.592-1.592h0a1.591,1.591,0,0,1,1.592-1.592h7.731a1.591,1.591,0,0,1,1.592,1.592h0a1.591,1.591,0,0,1-1.592,1.592Z"/><path class="cls-20" d="M91.624,39.654a1.591,1.591,0,0,1-1.592-1.592h0a1.591,1.591,0,0,1,1.592-1.592h7.731a1.591,1.591,0,0,1,1.592,1.592h0a1.591,1.591,0,0,1-1.592,1.592Z"/><path class="cls-20" d="M127.98,17.464a.979.979,0,0,1-.98.979h0a.979.979,0,0,1-.98-.979V12.706a.979.979,0,0,1,.98-.979h0a.98.98,0,0,1,.98.979Z"/><path class="cls-20" d="M127.98,26.747a.979.979,0,0,1-.98.979h0a.979.979,0,0,1-.98-.979V21.989a.979.979,0,0,1,.98-.979h0a.979.979,0,0,1,.98.979Z"/><path class="cls-20" d="M129.263,20.542a.979.979,0,0,1-.98-.979h0a.979.979,0,0,1,.98-.979h4.758a.979.979,0,0,1,.98.979h0a.979.979,0,0,1-.98.979Z"/><path class="cls-20" d="M119.98,20.542a.979.979,0,0,1-.98-.979h0a.979.979,0,0,1,.98-.979h4.758a.979.979,0,0,1,.98.979h0a.979.979,0,0,1-.98.979Z"/><path class="cls-21" d="M72.335,25.34a.979.979,0,0,1-.979.979h0a.979.979,0,0,1-.979-.979V20.582a.979.979,0,0,1,.979-.979h0a.979.979,0,0,1,.979.979Z"/><path class="cls-21" d="M72.335,34.623a.979.979,0,0,1-.979.979h0a.979.979,0,0,1-.979-.979V29.865a.979.979,0,0,1,.979-.979h0a.979.979,0,0,1,.979.979Z"/><path class="cls-21" d="M73.618,28.418a.979.979,0,0,1-.98-.979h0a.979.979,0,0,1,.98-.979h4.758a.98.98,0,0,1,.98.979h0a.979.979,0,0,1-.98.979Z"/><path class="cls-21" d="M64.334,28.418a.979.979,0,0,1-.979-.979h0a.979.979,0,0,1,.979-.979h4.758a.979.979,0,0,1,.979.979h0a.979.979,0,0,1-.979.979Z"/><path class="cls-17" d="M374.911,27.025H433.62a.519.519,0,0,1,.519.519V71.322a.519.519,0,0,1-.519.519H374.911a.518.518,0,0,1-.518-.518V27.543A.519.519,0,0,1,374.911,27.025Z"/><path class="cls-18" d="M433.139,28.025V70.841H375.392V28.025h57.746m.482-2h-58.71a1.523,1.523,0,0,0-1.518,1.518V71.323a1.523,1.523,0,0,0,1.518,1.518h58.71a1.523,1.523,0,0,0,1.518-1.518V27.543a1.523,1.523,0,0,0-1.518-1.518Z"/><line class="cls-22" x1="374" y1="37.5" x2="435" y2="37.5"/><circle class="cls-23" cx="428.882" cy="32.162" r="1.708"/><circle class="cls-23" cx="422.049" cy="32.162" r="1.708"/><circle class="cls-23" cx="415.217" cy="32.162" r="1.708"/><path class="cls-18" d="M395.324,61.817a.759.759,0,0,1-.6-.3l-6.228-8.091,6.572-8.539a.759.759,0,0,1,1.2.925l-5.86,7.614,5.516,7.166a.759.759,0,0,1-.6,1.222Z"/><path class="cls-18" d="M412.373,61.817a.759.759,0,0,0,.6-.3l6.228-8.091-6.572-8.539a.759.759,0,1,0-1.2.925l5.86,7.614L411.771,60.6a.759.759,0,0,0,.6,1.222Z"/><path class="cls-18" d="M399.874,63.034a.747.747,0,0,1-.307-.065.757.757,0,0,1-.387-1l8.1-18.283a.759.759,0,0,1,1.388.614l-8.1,18.283A.76.76,0,0,1,399.874,63.034Z"/></g></svg>